<?xml version="1.0" encoding="UTF-8"?>
<svg id="Calque_1" data-name="Calque 1" xmlns="http://www.w3.org/2000/svg" viewBox="0 0 1920 1080">
  <defs>
    <style>
      .cls-1 {
        fill: #fff;
      }
    </style>
  </defs>
  <path class="cls-1" d="M545.46,662h-86.95v-123.83h-40.84v123.83h-87.82v-310.02h87.82v122.08h40.84v-122.08h86.95v310.02Z"/>
  <path class="cls-1" d="M664.46,662h-87.82v-310.02h87.82v310.02Z"/>
  <path class="cls-1" d="M993.36,662h-72.89v-212.53l-47.86,212.53h-55.77l-48.3-208.58v208.58h-72.89v-310.02h110.22l39.52,204.63,38.64-204.63h109.34v310.02Z"/>
  <path class="cls-1" d="M1253.76,662h-91.34l-41.71-126.91h-7.9v126.91h-88.27v-310.02h112.86c38.05,0,64.25,4.98,78.6,14.93,13.18,9.37,20.93,22.11,23.27,38.2,1.17,8.49,1.76,19.47,1.76,32.93,0,26.94-2.64,46.11-7.9,57.53-5.27,12.01-15.23,21.37-29.86,28.1l50.5,138.32ZM1155.83,450.34v-17.56c0-7.03-1.47-12-4.39-14.93-2.93-2.92-8.06-4.39-15.37-4.39h-23.27v61.04h22.39c8.49,0,14.05-1.54,16.69-4.61,2.64-3.07,3.95-9.59,3.95-19.54Z"/>
  <path class="cls-1" d="M1502.3,662h-86.51l-9.66-69.82h-53.14l-10.54,69.82h-86.94l72.02-310.02h104.51l70.26,310.02ZM1398.23,536.85l-18.44-124.27-18.88,124.27h37.33Z"/>
</svg>