<?xml version="1.0" encoding="UTF-8"?>
<svg id="Calque_1" data-name="Calque 1" xmlns="http://www.w3.org/2000/svg" viewBox="0 0 345 146">
  <defs>
    <style>
      .cls-1 {
        fill: #fff;
      }
    </style>
  </defs>
  <path class="cls-1" d="M316.32,45.94c-5.38-1.92-14.21,9.65-20.3,15.93l2.55-8.19c.32-1.01-.3-4.04-1.27-3.82l-3.46.78-29.06,28.99c-2.38,1.3-5.57,1.57-7.33.2-1.71-1.34-2.6-5.98-.75-6.86,7.83-3.7,16.3-10.21,15.8-16.3-.26-3.05-6.52-3.16-10.14-.49l-18.4,13.61-9.08,6.08,2.76-12.27c.26-1.16-.24-3.37-.96-4.08-4.94-4.89-15.26,10.07-23.2,14.54l9.91-23.96c.46-1.12-.33-3.67-1.39-4.06-.88-.33-3.38.1-4.1.75l-10.92,10-9.47,10.36-.13.16-8.28,10.46,13.51-21.81c.4-.82-.8-3.92-1.64-3.74l-3.88.83c-8.02,11.37-14.83,22.87-20.41,35.68.37,2.25,1.04,4.77,2.1,5.67,1.05.9,4.66,0,5.52-1.12l11.8-15.37c5.84-7.61,11.8-14.43,18.92-21.38l-9.73,22.7c-.49,1.13-.05,4.09.43,5.13.49,1.03,3.66,1.55,4.66.63l20.49-18.8-.52,10.36c-.06,1.13.95,3.12,1.74,3.69.79.57,3.8.72,4.79.03l14.89-10.34c-1.16,4.46-1.23,10.34,2.04,13.92,10.21,11.19,25.59-13.31,36.22-22.05l-7.91,21.34c-.29.78,1.73,2.81,2.32,2.49.59-.32,2.17-1.34,2.65-2.06l8.19-12.27c4.37-6.56,8.48-12.51,14.7-17.27l-12.36,27.27c-.51,1.13.13,3.32,1.03,3.69.89.36,2.77-1.14,3.16-2.12,2.95-7.51,6.12-13.56,9.54-20.76l5.77-12.13c.39-.81.02-3.75-.8-4.04ZM265.45,58.18c.79-.82,2.17-.51,2.52.57.7,2.18-6.4,6.52-9.56,7.63-2.67.93,4.61-5.63,7.04-8.2Z"/>
  <path class="cls-1" d="M140.79,37.41l-3.18.13-44.48,21.42-19.52,8.87,10.72-16.73c4.33-6.74,10.19-12.37,14.94-18.99,4.93-6.86,6.9-15.22,11.6-22.55.72-1.13.7-3.35-.12-3.98-.68-.53-3.63-.52-4.17.35l-7.01,11.52-34.22,53.66-11.82,7.46c-1.37.87-3.66,3.99-3.22,5.53.44,1.55,1.86,3.4,3.7,5.61l-18.95,33.24-7.23,13.71c-.5.94.75,4.54,1.61,4.08l3.59-1.9,24.73-46.28,33.93,21.53,39.51,24.51,3.31-.66c.74-.15-.23-2.48-.72-3.05l-73.28-46,8.35-13.14,22.01-10.06c10.93-5,21.04-9.43,32.35-14.02,5.72-2.32,13.28-7.76,18.21-10.82.66-.41.09-3.47-.64-3.44ZM58.28,85.89l-1.91-1.71c-.89-.8-.75-2.23.28-2.83l6.23-3.64-4.6,8.18Z"/>
  <path class="cls-1" d="M183.75,60.15c-4.19-4.66-20.77,12.58-29.01,19.86l9.43-16.69c.6-1.07-.39-3.61-1.34-4-.79-.32-2.93.13-3.53.75l-14.76,15.29-14.63,15.35,6.64-21.34c.58-1.88.36-6.06-1.09-7.12-3.39-.61-7.02,2.42-9.89,5.14-2.53-4.69-7.13-7.24-12.27-5.07-12.31,5.17-20.7,18.83-23.99,31.93-.77,3.11.52,8.15,3.91,9.47,2.17.84,6.79-1.34,8.48-3.05l15.74-15.89c.75,1.78,2.79,3.72,3.87,3.26,4.74-2.01,2.07-12.74,8.78-16.65l-6.03,18.76c-.62,1.92,1.28,5.68,3.16,6.84,1.54.95,4.94-.54,6.57-2.3l15.19-16.43-9.27,19.09c-.49.99,1.96,3.74,2.78,3.35.66-.31,2.25-1.15,2.69-1.74,6.64-8.82,14.22-17.14,22.69-24.13l8.91-7.35.53,5.36c.07.79,2.34.69,3.12.4l3.56-8.6c.53-1.27.57-3.59-.24-4.49ZM120.47,73.28l-11.36,12.09c-4.33,4.85-8.19,8.76-13.82,12.81-.56-16.06,18.4-35.93,24.5-30.91,1.14.93,1.76,4.85.68,6.01Z"/>
</svg>