<?xml version="1.0" encoding="UTF-8"?>
<svg id="Calque_1" data-name="Calque 1" xmlns="http://www.w3.org/2000/svg" viewBox="-32 -32 1664 463.7">
  <defs>
    <style>
      .cls-1 {
        fill: #fff;
      }
    </style>
  </defs>
  <path class="cls-1" d="M0,398V5.93c1.44-.62,3.9-1.04,6.04-1.04l82.42.16v309.66s61.63.13,61.63.13L200.57,5.69l110.2-.12,64.26,391.91-8.12.56-80.71-.2-33.85-231.36-33.17,231.4L0,398Z"/>
  <path class="cls-1" d="M951.05,399.67h-13.07c-28.98-1.95-58.16-7.75-78.48-31.03-10.02-11.48-14.02-24.49-14.04-39.83l-.36-228.62c-.02-15.02-3.66-28.71-6.11-42.97-5.09-21.93-17.02-40.02-35.9-52.35l-.7-2.89c-.12-.51,2.18-.95,2.75-.95l118,.08.12,301.54c0,9.18,10.1,15.43,17.34,15.24l17.91-.47.36-316.15,88.11-.16v301.72c-1.09,16.86-4.14,32.05-11.33,46.82-16.41,33.67-49.08,50.05-84.6,50.03Z"/>
  <path class="cls-1" d="M1554,0h46v1.14c-4.11,2.48-7.62,5.85-11.12,9.86-13.42,21.12-17.51,47.26-17.39,72.14l-76.1.09.07,65.27,64.58.13v81.79s-64.64.19-64.64.19l.04,79.62,79.02.04-.02,86.96-16.57.79-142.71-.03c-2.86,0-5.65-.5-7.84-1.03V1.18S1554,0,1554,0Z"/>
  <path class="cls-1" d="M1385.95,398.01l-78.94-.06c-10.39,0-15.13-2.91-17.24-11.99l-46.54-200.24-.65,212.02-73.96.02V1.06s109.74-.08,109.74-.08l41.57,170.45,1.15-170.4,74.76.04.02,395.79-9.92,1.15Z"/>
  <path class="cls-1" d="M761.59,393.12c-24.07,6.16-48,6.22-71.79,1.07-27.22-5.9-49.26-23.96-60.74-49.22-7.32-16.12-10.64-33.11-10.76-50.98l-.68-100.02c-.21-30.75-1.07-60.27.28-90.91.78-17.68,3.84-34.16,11.15-50,15.03-32.56,44.89-49.02,80.26-51.66,45.75-3.41,88.78,7.46,108.8,51.53,8.58,18.89,10.67,38.33,10.92,59.14l1.35,112.88-1.24,71.98c-.28,16.18-4.16,31.32-10.14,46-10.28,25.24-30.41,43.29-57.41,50.2ZM741.61,299.96l.48-95.97c.18-36.7.37-72.4-1.26-108.69-.41-9.17-8.8-14.36-16.88-14.38-8.74-.03-18.07,6.11-18.07,16.36l-.03,203.42c0,10.09,8.45,16.03,17.12,16.47,9.64.49,18.58-6.06,18.63-17.21Z"/>
  <path class="cls-1" d="M594.66,156.81l.12,81.91-60.12.09v158.4s-17.73.83-17.73.83l-70.35-.39V1.04s203.1.05,203.1.05c-16.58,11.09-29.62,24.59-38.53,42.02-6.03,12.79-10.21,25.67-12.52,39.75l-63.89.42-.14,73.47,60.05.06Z"/>
  <polygon class="cls-1" points="1151.18 397.48 1080.07 398.04 1063.02 397.07 1063.01 1.05 1151.18 1.03 1151.18 397.48"/>
</svg>