<?xml version="1.0" encoding="UTF-8"?>
<svg id="Calque_1" data-name="Calque 1" xmlns="http://www.w3.org/2000/svg" viewBox="0 0 1920 1080">
  <defs>
    <style>
      .cls-1 {
        fill: #fff;
      }
    </style>
  </defs>
  <g>
    <g>
      <path class="cls-1" d="M1265.73,321.99c4.17,0,8.18.32,12.05.95,3.87.63,7.29,2.06,10.28,4.28,2.99,2.22,5.37,5.47,7.15,9.75,1.78,4.28,2.67,9.95,2.67,17.02v5.1c0,7.73-1,13.67-3,17.8-2,4.14-3.82,6.59-5.47,7.36,1.59.71,3.59,3.12,6,7.24,2.41,4.11,3.62,10.06,3.62,17.84v7.07c0,7.07-.95,12.8-2.84,17.19-1.89,4.39-4.41,7.76-7.57,10.11-3.15,2.36-6.72,3.87-10.69,4.52-3.98.66-8.05.99-12.21.99h-35.28v-127.21h35.28ZM1263.59,369.36c2.58,0,4.32-.45,5.22-1.36.9-.91,1.36-2.75,1.36-5.55v-6.74c0-2.8-.45-4.65-1.36-5.55s-2.65-1.36-5.22-1.36h-4.44v20.56h4.44ZM1259.15,396.17v26.23h4.44c2.52,0,4.25-.55,5.18-1.65.93-1.1,1.4-3.01,1.4-5.76v-11.84c0-2.85-.45-4.73-1.36-5.63-.91-.9-2.65-1.36-5.22-1.36h-4.44Z"/>
      <path class="cls-1" d="M1345.99,321.99h27.22l-24.83,87.58v39.64h-28.7v-39.14l-24.75-88.07h29.36l11.02,51.15,10.69-51.15Z"/>
    </g>
    <g>
      <path class="cls-1" d="M1228.8,574.54v-6.45s51.11-.02,51.11-.02c1.67,7.88,6.71,15.04,14.97,15.9l7.16.12c4.79.08,9.5-1.06,13.38-3.68,2.43-1.65,3.59-3.82,3.48-6.74-.09-2.47-.81-4.78-2.94-6.38-1.1-.82-2.57-1.96-3.92-2.39-3.24-1.04-6.24-2.11-9.58-2.81l-31.53-6.69c-3.91-.83-7.45-2.32-11.16-3.71-2.83-1.06-5.48-2.46-8.17-3.87-3.12-1.63-5.94-3.67-8.67-5.9-3.4-2.77-6.52-7.29-8.25-11.34-2.25-5.28-2.49-10.9-2.63-16.57-.16-6.32,1.11-12.07,4.12-17.61,2.54-4.68,5.79-8.76,10.17-12.02,7.45-5.56,16-9.16,25.13-11.3,12-2.81,24.18-3.69,36.42-2.61l8.41.74c8.54.75,16.55,2.8,24.44,6.12,2.38,1,4.57,2.27,6.86,3.49,1.87,1,3.46,2.27,5.14,3.55,8.67,6.63,13.13,16.25,14.47,26.99l.05,3.42h-48.4s-2.81-5.54-2.81-5.54c-1.59-3.15-4.29-5.16-7.33-6.71-2.81-1.43-5.48-2.14-8.68-2.11-3.9.04-7.62.41-11.22,2.09-4.04,1.9-6.09,6.9-3.93,10.91,1.38,2.56,4.06,3.95,6.72,4.79,3.44,1.08,6.64,1.79,10.21,2.45,10.15,1.89,20.09,3.68,30.07,6.36,3.75,1,7.12,2.3,10.76,3.59,6.15,2.17,11.74,5.38,16.59,9.71,2.18,1.94,3.97,4.05,5.79,6.29,1.08,1.33,1.68,3.02,2.47,4.54,1.44,2.77,2.26,5.43,3.11,8.61l.53-86.09h51.62s.04,17.49.04,17.49l6.56-6.94c2.68-2.42,5.33-4.91,8.59-6.51l7.34-3.62c7.29-3.01,14.96-3.79,22.83-3.75,5.13.02,9.87.13,14.89,1.39,19.23,4.82,31.8,19.16,34.23,38.99v103.39s-53.29.01-53.29.01v-58.33s-.61-21.9-.61-21.9l-1.08-7.64c-.32-2.25-1.6-4.5-2.78-6.4-2.82-4.52-7.81-6.28-12.95-6.19-2.97.05-5.53.17-8.26,1.33-4.5,1.91-7.91,4.62-10.04,9.07-1.83,3.82-2.83,7.76-3.04,12.07l-.34,6.79-.54,71.19h-53.27s-.58-37.15-.58-37.15c-1.07,4.24-1.86,8.26-3.84,12.24-4.67,8.86-12.05,15.83-21.2,19.97-7.96,3.61-15.27,5.89-23.98,7.14-4.62.66-9.12,1.32-13.81,1.52-14.83.63-25.9-.2-40.21-4.32-5.24-1.51-12.67-4.77-17.34-7.6-2.68-1.63-5.08-3.65-7.45-5.71-4.59-3.99-7-7.95-9.86-13.11-1.37-2.47-3.63-9.94-3.99-12.57Z"/>
      <path class="cls-1" d="M1318.31,755.41h0c-11.22,3.21-23.08,3.46-34.42.7l-2.9-.7c-21.99-6.21-39.89-22.73-47.57-44.28-11.11-31.16.94-65.66,28.98-83.22,12.61-7.89,26.83-11.39,41.68-10.55,23.2,1.31,44.01,14.44,55.61,33.41,13.15,21.51,13.73,47.83,2.2,69.59-9.14,17.25-25.07,29.88-43.57,35.06Z"/>
      <path class="cls-1" d="M1753.54,616.3c-11.31-1.57-21-8.4-28.96-16.86l-.55,59.5h-53.29s0-103.97,0-103.97l-100.94.34c.51,5.2,1.88,10.21,4.35,14.78,1.98,3.5,4.39,6.37,7.78,8.57,12.15,5.93,28.29,6.63,36.69-5.24h50.51c-3.81,23.15-22.98,35.81-44.64,40.99-21.07,5.04-44.61,4.74-64.67-3.91-11.24-4.85-21.02-12.35-28.2-22.27-12.51-17.29-15.53-40.78-11.33-61.39,4.85-23.85,21.86-43.58,44.58-52.18,7.48-2.83,15.08-4.19,23.11-4.46,15.14-.51,29.98.75,43.86,6.99,26.05,11.71,36.21,37.15,38.71,64.27-.12.42-.03.58.2.29v-67.49s.6-.18.6-.18l51.5-.41.13,13.7v.71c0,.15.22-.02.44-.22,2.6-3.02,5-5.94,8.25-8.34,5.01-3.7,10.62-6.51,16.79-7.83,9.92-2.13,23.32-2.01,32.92,1.35,13.87,4.85,24.6,15.1,31.4,28.03,11.28,21.47,12.83,49.3,6.63,72.53-2.34,8.77-6.2,16.82-11.66,23.94-6.49,8.46-15.17,14.34-25.43,17.26-9.41,2.68-19.1,3.1-28.78,1.49ZM1620.86,527.9c-.89-4.37-1.98-7.88-3.74-11.31-2.44-4.86-6.56-8.09-11.93-9.18-6.33-1-12.76-1.14-19.01.27-10.07,2.28-14.54,10.41-15.81,20.22h50.49ZM1768.36,531.19c-2.46-12.12-9.48-22.31-22.71-21.93-12.74.36-19.71,10.05-22.16,21.87-2.15,10.37-1.52,21.09,1.52,31.12,2.04,6.71,6.53,11.84,12.33,14.29,7.03,2.97,14.44,2.39,20.49-1.57,12.31-8.05,13.26-30.31,10.52-43.79Z"/>
    </g>
  </g>
  <g>
    <path class="cls-1" d="M1083.54,675.49c-15.43,0-26.84,12.47-26.84,27.68s11.41,27.69,27.05,27.69,26.42-12.26,26.42-27.47-11.2-27.9-26.63-27.9ZM1091.78,721.35c-1.06-1.27-1.69-4.44-2.75-8.45-.63-3.8-2.75-5.5-7.19-5.5h-3.8v13.95h-8.03v-34.66c3.17-.63,7.61-1.06,13.31-1.06,6.55,0,9.51,1.06,12.05,2.54,1.9,1.48,3.38,4.23,3.38,7.61,0,3.8-2.96,6.76-7.19,8.03v.42c3.38,1.27,5.28,3.8,6.34,8.45,1.06,5.28,1.69,7.4,2.54,8.66h-8.67Z"/>
    <path class="cls-1" d="M1082.7,691.34c-2.11,0-3.59.21-4.44.42v9.93h3.8c4.44,0,8.03-1.48,8.03-5.07,0-3.17-2.33-5.28-7.4-5.28Z"/>
    <path class="cls-1" d="M659.87,626.55c-3.99-4.23-9.33-6.73-14.99-8.06-12.48-2.94-30.24-1.72-39.29,7.48-5.19,5.28-8.08,12.3-9.1,19.58-1.83,13.13,0,27.46,8.64,37.62,11.82,13.91,43.96,14.42,56.09-.68,4.56-6.31,7.26-13.48,7.85-21.32l-.04-13.12c-.75-7.98-3.63-15.62-9.16-21.49Z"/>
    <path class="cls-1" d="M1137.89,288.19H143.25c-26.99,0-48.87,21.88-48.87,48.87v405.89c0,26.99,21.88,48.87,48.87,48.87h994.64c26.99,0,48.87-21.88,48.87-48.87v-405.89c0-26.99-21.88-48.87-48.87-48.87ZM742.94,372.02c37.28,2.25,74.01,5.91,111.8,10.83l-.44,39.66-73.54-6.13-.25,21.14,72,4.99-.47,39.48-71.8-3.13-.28,23.19,74.33,2.16-.51,40.5-112.01-.23,1.17-172.45ZM280.57,509.84c-.78,9.46-4.77,18.32-11.64,24.8-9.48,8.93-26.38,12.24-39.44,12.8-10.34.44-20.34.44-30.7,0-21.95-.93-50.8-7.2-52.61-32.2l-.58-2.67-.1-1.47,1.49-.42,40.81-4.42c.95,10.48,8.73,13.67,18.66,14.49,9.77-.29,25.77-.16,30.49-8,1.91-3.17,2.25-8.89-.75-11.59-10.33-9.31-52.12,6.11-76.57-5.53-7.61-3.62-11.95-10.63-12.11-19.02-.1-5.51.34-10.84,2.81-15.82,3.74-7.55,9.42-13.4,16.5-18.07,10.07-6.63,20.83-11.69,32.48-14.96l21.37-5.99c11-3.08,26.32-4.72,37.09-1.29,14.31,4.76,19.09,17.1,18.81,31.42l-41.34,6.98c-.96-8.71-8.56-10.08-17-9.45-9.41,1.56-18.29,3.29-26.48,8.09-2.49,1.46-3.59,3.78-3.65,6.59-.06,3.03,1.64,5.13,4.73,5.56,4.48.63,9.02.42,13.65-.23l27.32-3.79c7.74-1.07,15.3-.86,22.91.49,22.43,4,25.54,22.97,23.84,43.67ZM424.51,678.15c-1.04,7.57-4.52,14.49-10.34,19.4-9.65,8.13-26.17,7.67-39,5.52l-20.11-4.59c-17.96-4.1-40.87-13.63-53.31-27.3-7.22-7.94-11.35-17.89-10.86-28.42l41.41,8.07c.96,10.88,8.72,16.2,18.71,19.59,11.84,2.81,31.7,8.02,31.65-5.75-.01-3.97-1.63-7-5.21-8.83-4.07-2.08-8.49-3.64-13.13-4.55l-25.24-4.99c-8.95-1.77-17.4-4.49-25.48-8.58-13.54-6.85-21.98-16.94-21.31-32.56.58-13.5,9.87-21.13,22.39-24.79,9.65-2.82,19.41-4.36,29.57-4.37l23.53-.03c7.31,0,14.34.94,21.4,2.52,21.59,4.83,34.15,18.2,33.17,40.9l-41.57-2.84c-.7-8.94-9.09-12.76-17.73-13.88-8.16-1.06-21.67-1.92-27.72,1.71-2.1,1.26-2.16,4.23-1.82,6.4.84,5.28,10.98,7.71,17.29,8.5l27.75,3.45c9.1,1.13,17.64,3.44,25.88,7.14,19.71,8.87,22.87,28.16,20.11,48.28ZM414.86,514.97c-3.48,7.38-7.89,13.82-14.19,18.99-9.19,7.54-20.17,11.95-32.05,12.97-21.5,1.84-41.96-.77-58.75-14.82-4.04-3.39-7.13-7.34-9.89-11.77-7.9-12.69-11.64-26.8-12.33-41.84l-1.14-70.79,38.29-8.03,1.07,67.76c.53,8.61,2.26,16.48,6.66,23.77,6.36,10.54,20.72,12.75,32.5,9.55,17.86-4.84,22.1-24.76,22.02-41.97l-1.02-70.01,38.48-5.61,1.02,82.36c-.26,17.33-3.34,33.88-10.68,49.44ZM553.23,619.65l-43.32-1.21-1.02,106.21-38.51-5.03,1.15-102.64-43.28-2.1.5-36.62,124.77.29-.29,41.1ZM519.78,547.36c-7.37.51-14.4.58-21.8.03-14.4-1.07-28.19-6.07-39.25-15.29-5.16-4.31-9.01-9.35-12.31-15.13-7.5-13.17-11.33-27.59-12.06-42.76-.42-8.68-.52-16.77-.18-25.48.78-20.25,8.39-45.06,23.79-58.57,10.94-9.6,24.24-15.58,38.65-17.86,17-2.7,34.55-2.94,50.42,3.87,24.75,11.69,34.04,37.51,33.46,64.16l-39.97,1.19c-1.07-5.59-3-10.87-6.58-15.34-3.65-4.45-8.55-7.08-14.19-8.43-18.89-3.29-37.42,2.15-43.49,21.51-2.15,6.87-2.55,13.78-2.48,21.04.08,9.27,1.78,18.01,6.06,26.19,3.32,6.35,8.45,11.11,15.45,13.39,9.32,3.04,19.58,2.34,28.49-1.62,6.64-2.85,11.41-7.75,14.02-14.39,1.54-3.46,2.52-6.62,2.97-11.1l39.94-.87c.52,18.28-2.95,33.34-12.29,48.75-3.91,5.83-8.13,10.96-13.97,14.91-10.36,7.02-22.14,10.94-34.68,11.81ZM704.4,691.09c-6.09,18.46-19.02,32.92-37.56,39.26-7.28,2.49-14.48,4.1-22.46,4.58h-20.95c-8.73,0-16.9-2.2-25.07-5.14-17.95-6.34-31.49-21.03-37.32-39.05-3.16-9.78-5.1-19.58-4.96-29.92l.23-17.34c.13-9.96,2.32-19.41,5.94-28.75,5.1-13.15,14.7-24.23,27.37-30.57,16.98-8.5,36.34-9.25,55.13-8.08,8.6.54,16.71,2.39,24.75,5.33,8.19,3,15.22,7.6,21.14,13.92,15.07,16.09,18.46,36.25,18.66,57.79.12,13.1-.78,25.54-4.88,37.96ZM708.64,533.7c-10.78,8.19-23.64,12.61-37.15,13.64-7.52.58-14.66.62-22.21,0-15.17-1.23-29.72-7.13-40.55-17.89-13.55-13.46-20.68-37.76-21.85-56.81-.63-10.15-.64-19.86-.26-30.12.76-20.67,7.83-47.26,23.56-60.96,12.22-10.65,27.54-15.31,43.28-16.09l9.13-.02c13.1.56,26.19,2.65,38.06,9.31,23.85,13.38,33.51,39.59,32.62,66.43l-39.98-1.1c-.83-4.21-1.99-8.15-3.87-11.94-7.22-13.93-24.17-17.31-38.85-14.44-9.51,1.86-16.79,8.1-20.45,17.05-3.11,7.59-3.75,15.5-3.85,23.75-.11,9.96,1.34,19.35,5.47,28.35,3.38,7.36,8.86,12.96,16.75,15.54,9.54,3.12,20.07,2.37,29.04-1.99,9.79-4.75,14.14-14,15.75-24.66l39.85.79c0,8.06-.36,15.47-2.16,23.04-3.24,13.67-11.13,29.59-22.33,38.1ZM816.5,719.16c-.88-1.43-1.35-3.27-1.38-5.08l-.32-20.65c-.13-8.57-2.87-17.8-11.37-19.94-2.4-.44-4.92-.83-7.45-.63l-38.51,2.98.41,50.69-38.66,3.25-.89-151.2,94.89-.11c6.99,0,13.33,1.53,19.63,3.73,14.36,5.94,19.32,17.38,19.26,32.57,0,15.13-6.6,25.26-19.66,31.93,13.42,3.2,19.95,14.18,20.72,27.54l.35,25.89c.23,4.12.67,7.55,2.15,12.31l-39.16,6.72ZM965.3,613.11l-25.28,37.06.42,43.05-37.88,9.41-.53-46.79c-19.7-24.89-38.03-50.72-55.74-77.53l45.84-.21,29.61,41.21,29.36-41.49,41.81-.16-27.62,35.45ZM995.58,510.99c-2.12,14.4-11.7,25.88-25.29,30.87-10.37,3.81-20.95,5.78-32.37,5.78h-21.38c-8.77,0-17.17-1.5-25.27-4.47-24.1-8.98-31.2-30.58-30.3-54.74l42.11,2.31c.37,11.75,5.81,19.13,16.89,21.86,8.04,1.36,16.34,1.58,24.22-.09,6.52-1.38,9.95-6.56,9.54-12.9-.26-4.12-1.65-7.26-5.57-9.16-4.18-2.03-8.82-3.44-13.65-4.02l-26.95-3.27c-7.58-.92-14.62-3.07-21.33-6.49-17.67-9-23.34-26-23.06-45.18.16-11.16,1.39-20.82,8.08-29.93,4.31-5.86,10.53-9.48,17.67-11.12,8.16-1.87,16.33-2.17,24.76-1.1l26.38,4.73c9.37,1.68,17.99,5.16,26.29,9.7,18.16,9.92,28.15,25.39,27.34,46.34l-41.55-6.04c-.71-9.78-7.5-14.67-16.31-17.52-8.25-2.17-25.05-4.54-29.41.6-2.6,3.07-2.32,8.24-.64,11.7,2.35,4.86,11.62,7.32,17.69,8.29l25.27,4.03c9.68,1.54,18.7,4.58,27.2,9.17,11.13,6.01,18.32,16.09,19.9,28.71.92,7.33.84,14.58-.24,21.94ZM1083.54,738.26c-19.87,0-35.71-15.43-35.71-35.08s15.85-34.66,35.71-34.66,35.51,15.43,35.51,34.66-15.43,35.08-35.51,35.08ZM1135.64,513.52c-.15,7.47-1.71,14.08-7.15,19.57-4.46,4.49-9.96,7.67-16.44,9.61-9.61,2.89-19.01,4.77-28.91,4.76l-32.14-.04c-9.8-.01-19.09-2.45-27.79-6.6-17.14-8.18-23.21-24.79-22.37-43.18l41.92,3.63c.62,11.96,8.52,16.99,19.91,18.89,11.83.77,31.65,3.14,30.49-9.92-.27-3.06-1.75-5.24-4.57-6.58-4.36-2.07-8.99-3.5-13.91-4.24l-28.78-4.3c-7.84-1.17-15.1-3.59-22-7.23-10.67-5.64-18.03-15.12-20.03-27.09-1.38-8.22-1.32-16.6.84-24.57,2.78-10.24,10.87-16.96,21.32-18.19,9.13-1.08,18.13-.7,27.06,1.76l26.35,7.26c9.3,2.56,17.78,6.54,26.13,11.27,14.04,7.95,27.14,20.25,26.55,37.56l-41.01-8.56c-.73-7.6-8.07-12.4-15.07-14.81-7.91-2.73-25.53-6.93-30.32-2.67-2.76,2.45-2.12,8.41.58,10.68,3.97,3.35,8.71,5.05,13.7,6.11l25.79,5.45c8.13,1.72,15.77,4.1,23.41,7.24,16.02,6.58,26.81,16.15,26.44,34.22Z"/>
    <path class="cls-1" d="M803.15,613.19l-46.2,1.4.26,25.39,45.68-2.38c4.81-.87,8.55-3.67,9.38-8.78.45-2.74.38-5.64-.11-8.1-.9-4.49-4.38-7.09-9.01-7.54Z"/>
  </g>
</svg>