<?xml version="1.0" encoding="UTF-8"?>
<svg id="Calque_1" data-name="Calque 1" xmlns="http://www.w3.org/2000/svg" viewBox="-12 -12 762 174">
  <defs>
    <style>
      .cls-1 {
        fill: #fff;
      }
    </style>
  </defs>
  <path class="cls-1" d="M225,0c15.92,2.83,30.97,8.83,42.64,22.28l13.26-17.48,23.26-.14c1.98-.01,4.45,2.04,3.9,4.45l-28.9,125.17c6.39-2.8,10.36-7.43,13.38-12.73l10.64-18.69c-7.06-51.77,24.77-97.5,77.78-102.05l3.04-.81h17l4.05.93c24.1,2.73,42.64,16.79,40.14,42.12-1.12,11.31-8.66,19.47-20.42,19.65-5.67.09-11.86-1.08-15.65-5.88-4.34-5.51-3.98-13.6-.12-19.14s10.63-7.51,18.32-7.41c-12.18-19.04-38.39-18.72-54.97-4.88-20.89,17.44-31.91,48.46-30.88,75.3.42,11.12,4.97,21.46,13.69,28.17,10.38,7.99,24.11,9.94,36.66,5.91,21.06-6.77,46.81-18.3,60.2-36.23l17.83-79.11-13.17-.8c-3.47-3.86-2.63-9.28-.33-13.79l45.73-.19c3.15-.01,4.82,2.27,5.37,5.02l.4,1.99c.11.56,2.29.05,2.84-.4,5.91-4.99,14.58-9.25,22.31-11.24h14c13.57,3.37,22.69,13.53,26.28,29.36,16.15-16.61,35.23-26.4,56.72-29.36h21l.34.69c16.52,1.86,30.77,8.63,42.64,21.52l13.1-17.39,22.11-.21c1.88-.02,5.7,1.86,5.09,4.49l-28.96,125.43c10.93-5.76,16.02-15.6,20.5-26.04,5.39-.57,9.34-1.05,12.17,2.5v3c-9.14,20.67-21.55,38.57-44.71,32.58-7.84-2.03-14.48-8.31-19.02-17.37-15.23,16.51-28.77,18.5-49.27,18.98-16.48.38-31.86-3.41-45.41-12.78-18.57-12.83-28.37-34.09-26.02-56.62l1.16-11.18c-16.26,1.2-29.39-8.2-28.57-22,.36-6.16,3.49-12.4,9.6-15.97,4.62-2.7,9.56-9.18,5.71-14.18-15.83-3.48-33.51,17.36-36.97,32.06l-19.42,82.56,12.16.84c3.61,2.69,3.59,10.1.12,13.7l-65.27.09c-1.17,0-3.97-.38-4.17-1.36l-1.17-5.83c-12.1,6.49-24.71,10.84-37.76,12.47h-23l-3.99-.95c-21.46-2.63-40.18-10.72-52.78-28.98-11.05,19.62-21.95,32.13-42.72,26.31-7.62-2.14-14.2-8.22-18.31-17.42-15.28,16.77-28.49,18.67-49.22,19.23-19.57.53-38.23-5.17-52.67-18.48-12.28-11.44-19.22-26.74-19.22-43.61l-.98-1.77c-.25-.46-1.68.25-2.17.74-23.42,23.58-51.25,41.69-82.5,53.2C29.5,142.67,8.37,148.04,0,143.11v-4.11S27.53,19.04,27.53,19.04l-10.97-.79c-2-3.98-2.14-8.51-.09-13.5l63.43-.05c2.49,4.3,2.87,10.41-.47,13.58l-12.08.71-22.71,100.4c30.65-12.37,56.13-31.37,76.37-55.16,7.4-8.7,12.5-18.12,14.35-29.41-5.75,4.03-11.36,3.63-16.52.43-6.58-4.08-9.52-10.72-7.94-18.22,2.27-10.71,11.82-16.19,22.38-13.31,9.79,2.67,17.36,9.55,18.8,20.88,14.65-13.84,32.64-21.83,51.94-24.63h21ZM211.52,133.95c16.51-1.62,29.74-13.46,33.39-29.13l15.85-68.09c-10.51-16.09-29.62-24.99-48.33-21.09-11.89,2.48-21.59,10.35-28.89,20.04-13.72,18.21-19.6,41.73-15.62,64.25,3.7,20.91,21.84,36.15,43.6,34.02ZM640.34,133.59c15.53-2.62,27.56-14.44,31-29.28l15.64-67.4c-9.77-15.48-28.3-24.7-46.75-21.57-32.5,5.52-52.96,50.67-45.75,86.08,4.34,21.29,24.01,35.87,45.86,32.18Z"/>
</svg>