<?xml version="1.0" encoding="UTF-8"?>
<svg id="Calque_1" xmlns="http://www.w3.org/2000/svg" version="1.1" viewBox="0 0 1055.3 402.5">
  <!-- Generator: Adobe Illustrator 30.6.0, SVG Export Plug-In . SVG Version: 2.1.4 Build 109)  -->
  <defs>
    <style>
      .st0 {
        fill: #fff;
      }
    </style>
  </defs>
  <path class="st0" d="M748.9,278.7l-29.2,13.1c-8.5,3.8-15.4,9.7-21.7,16.3-5.3,5.5-8.1,12.4-7.4,20.1.7,7.1-3.6,12.4-10.8,14-15.5,3.5-31.6,5.7-47.7,5.6-14.3-.2-35.3-7.7-33.3-19.5,2.3-13.6-1.2-25.2-3.6-38.2-3-16.8-3.2-33.7-3.8-50.9-.6-15.4,1.1-30.2,4.5-45,3.4-14.6,4.6-28.9,5.3-44,.2-4.5,3.9-8.2,7.1-9.3,4.6-1.6,9.6-.5,13.4,2.8,5.4,4.8,5.3,12,8.5,19.4l2.6-30c.4-5,2.7-11.3,6.2-14.8,5.9-5.8,15.4-4.6,21.2.8,3.9,3.6,7.1,9.3,7.2,14.7l.5,23.4,7.5-25.8,3.9-9c9.6-39,20.5-77.2,33.5-115.1,2-5.8,7.7-8.2,12.5-6.8,5.8,1.7,8.1,6.7,6.7,12.7l-9.3,40.6-12.1,48-12.1,62.3,1.9,2.9c.4.6,2-1.7,2.3-2.2l12.1-62.6,6.9-24.2,10.8-51.1c1-4.6,7.1-5.8,10.8-4.7,3,.9,7.3,4.7,7.1,9l-2.1,36.1-12.3,93.8-1,28.1-1.5,30.2c0,1.2,1.5,3.8,2.5,4.3,1.2.6,4.5,0,5.5-.9l26-24.2c7.5-7,17.8-9.2,27.8-9.9,14.2-1,24.5,6.1,22.6,12.7-1.4,5.2-19.7,3.9-34.1,21.6-10.6,13-19,27.5-24.3,43.5-1.8,5.5-4.6,9.5-10.5,12.2h0Z"/>
  <path class="st0" d="M224.3,87.2c5.4-2.7,10.7,3.1,12,7.6,2.5,8.8,0,17.5-4,25.6l-14.5,29.6-11.8,25c-5.6,11.8-5.8,25.1-4.1,38.3,3.8,31,4.9,61.5,0,93.3-31.3-7.9-67.5-4-97.4,7.8l-15.9,8.1-12.3-31.6c-5.3-13.6-10.2-26.7-13-41-2.1-10.4-5.6-19.3-10-29-9.7-21.2-2.5-43.5-17.5-71.6-7.2-13.5-11.7-27.3-16-42.1L.9,42.4c-1.4-4.9-1.4-10.5,1.9-14.4,3.6-4.1,10.7-4.2,14.7-.2s7.2,8.6,9.1,13.7l11.3,28.8c9.1,23.2,18.9,45.2,30.9,67l8.9,13.1c.9,1.3,4.3,2.2,5.7,2.1,1.6-.1,4.4-2.7,4.6-4.3l2.1-14.9c6.1,2.6,12.7,2.8,19.1.7,9.6-3.2,9.5,6.6,14,5.7,2.7-.5,4.4-3,5-6,8.5-1.9,18.2.2,25.9,5.6l2.3,10.7c.7,3.4,2.7,7.2,5.1,8.6,10.3,6,26.9-8,30.5-23.5,1.1-4.7,3.1-9.2,6.6-12.4,17.9-16.2,18.7-31.9,25.8-35.4h0Z"/>
  <path class="st0" d="M424.8,235.5c-12.3,10.5-31.7,9.9-43.2-.8-7.1-6.6-12-16.7-12-26.9l-.3-122.6c0-7,2.1-13.8,5-19.6,5.1-10.2,14.7-16.2,25.9-17.1,23.3-1.8,37.8,16.1,37.7,38.7l-.2,119.9c0,10.6-4.8,21.4-13,28.4h0ZM407.9,216.6c3.8-2.5,6.2-7,6.2-11.5v-121.6c0-3.3-2.8-7-4.6-8.5-2.2-1.9-6.9-2.6-9.7-1-3.5,2-6.1,6.7-6.1,11.3v121.7c0,3.6,2.9,7.2,4.7,8.8,2,1.7,7,2.5,9.6.7h0Z"/>
  <path class="st0" d="M820.7,241.8h-23.5l4.1-29.3,14.2-4.9c4.7-1.6,7.2-6,5.1-11.2-2.6-6.3-9.2-9.3-15.8-10.8l20.4-134.8h31.2c0-.1,25.6,191,25.6,191h-24.6c0,.1-4.6-39.6-4.6-39.6h-26.9l-5.2,39.6h0ZM849.8,174.8l-9.7-78.3-10.8,78.4h20.5Z"/>
  <polygon class="st0" points="355.7 241.1 331.2 241.4 314 177.1 296.5 241.3 272.2 241.3 301.3 141.9 272.7 49.7 297.2 49.6 314 107.2 330.8 49.6 355.5 49.6 326.8 141.5 355.7 241.1"/>
  <path class="st0" d="M1052,220.4c-4.7,15.5-17.1,22.7-32,23-16,.3-29.1-8.4-33.2-24.3-2.5-9.9-3-20.1-2.5-30.2l23-2.3c-.2,14.3.6,32.7,12.2,33.2,12.8.5,17.4-25.4,4.8-45l-24.7-38.3c-12.4-19.2-17.1-42.4-10.8-64.3,4.3-15.1,17-23.5,32.1-23.4s26.6,7.9,31.2,22.3c2.8,8.7,3.3,18.2,2.7,27.3l-23.4.6c.8-12.6-.9-27-10.9-27-14.3,0-14.1,28-4.8,42.4l22.8,35c5.5,8.4,10.5,16.9,13.4,26.6,4.3,14.2,4.3,30,0,44.3h0Z"/>
  <path class="st0" d="M897.9,215.4l27.6-51.6,13.4-33.8c5.9-19.2,10.9-57.6-5.3-57.4-4.6,0-9,3.9-9.2,9.1l-.9,28.5-24,.2.2-19.3c.2-22.5,9.6-41.4,33.4-42,15.1-.4,27.5,7.8,31.8,22.6,8.3,28.3-.7,61.6-12.3,89l-27.5,54.6h43.4v26.5h-70.2c0,0-.2-26.4-.2-26.4h0Z"/>
  <path class="st0" d="M133.6,386l-31.5-.2c-4.3,0-6.1-2.5-6.4-6.7l-2.8-36.9c25.9-13.1,56.1-19.1,85-21.1,7.8-.5,14.5.7,22.5,3.1l-5.3,28.1-4,47.7c-.3.7-1,2.6-1.7,2.4l-2.9-.7c-16.1-9.8-33.5-15-53-15.7h0Z"/>
  <path class="st0" d="M141.3,113.9c-7.4-3.4-15.4-1.9-22.2,3-4.9-6.1-10.2-10.4-17.6-11.2-4.3-.5-8,1.5-11.6,4.7.1-25.4,3.5-49.7,7.8-74.4,3.1-17.9,3.6-37,18.4-35.3,6,.8,10,6.2,10,12.8,5.6,4.8,8.8,11.1,10.4,18.5l6,35.9,9.2,50.8-10.4-4.8h0Z"/>
  <path class="st0" d="M565.3,184.7l-22.2.2-11.5-12c-10.8,14-31.5,16.7-46.6,8.3-7.6-4.2-11.7-12.2-12.3-19.7-.8-9,2.1-18.2,9.6-23.1l10.7-7c-6.4-6.2-10.4-14.3-9.8-23.2.7-9.6,6.6-17.3,15.7-20.3,14.5-4.8,30.8.7,34.5,13.6,4,14.3-3.9,24-17.5,31.9l15.3,16.2,14-20.7h19c0,.1-22.4,31.2-22.4,31.2l23.5,24.5h0ZM507.2,124.8l9.2-7.2c4.3-4.5,4.1-12.3-.2-16.5-3.7-3.5-9.3-3.1-12.6-.8-4,2.8-6,7.7-4.4,12.8,1.4,4.3,4.5,7.8,8.1,11.7h0ZM502.9,171.8c8.1,1.1,14.8-3.6,18.9-9.2l-20.2-21.6c-9,4.6-14,13.3-10.4,22.3,1.5,3.9,6,7.7,11.8,8.5h0Z"/>
  <path class="st0" d="M232.1,127.8c4.9-8.7,8.8-16.9,8.7-26.4s-5.5-17.4-14.7-18.4c2.4-4.1,5.8-8.9,5.9-13.6l.3-19.8h23.8s0,191.7,0,191.7h-24c0,0,0-113.5,0-113.5h0Z"/>
</svg>